<?xml version="1.0" encoding="UTF-8" standalone="no"?>
<svg
   xmlns:dc="http://purl.org/dc/elements/1.1/"
   xmlns:cc="http://creativecommons.org/ns#"
   xmlns:rdf="http://www.w3.org/1999/02/22-rdf-syntax-ns#"
   xmlns:svg="http://www.w3.org/2000/svg"
   xmlns="http://www.w3.org/2000/svg"
   viewBox="0 0 298.92001 176.39999"
   height="176.39999"
   width="298.92001"
   xml:space="preserve"
   id="svg2"
   version="1.1"><metadata
     id="metadata8"><rdf:RDF><cc:Work
         rdf:about=""><dc:format>image/svg+xml</dc:format><dc:type
           rdf:resource="http://purl.org/dc/dcmitype/StillImage" /></cc:Work></rdf:RDF></metadata><defs
     id="defs6" /><g
     transform="matrix(1.3333333,0,0,-1.3333333,0,176.4)"
     id="g10"><g
       transform="scale(0.1)"
       id="g12"><path
         id="path14"
         style="fill:#231f20;fill-opacity:1;fill-rule:nonzero;stroke:none"
         d="m 1237.14,62.0703 c 5.39,-2.7305 10.87,-5.3086 16.35,-7.8789 l 254.64,254.6406 c -7.41,0.609 -14.78,1.34 -22.05,2.418 -168.43,25.004 -297.8,169.789 -297.8,345.176 0,192.972 156.44,349.404 349.41,349.404 175.27,0 319.98,-129.189 345.13,-297.455 1.1,-7.383 1.84,-14.867 2.46,-22.387 l 254.64,254.637 c -2.66,5.68 -5.33,11.355 -8.16,16.934 -110.05,216.641 -334.45,365.401 -594.07,365.401 -368.12,0 -666.534,-298.42 -666.534,-666.534 0,-259.856 149.034,-484.414 365.984,-594.3557 z M 379.836,1306.27 H 641.098 V 0 H 287.199 V 970.895 L 68.5586,920.883 0,1198.81 379.836,1306.27" /><path
         id="path16"
         style="fill:#231f20;fill-opacity:1;fill-rule:nonzero;stroke:none"
         d="m 2194.13,479.57 c -1.92,-4.558 -4.72,-8.664 -8.17,-12.105 -3.45,-3.449 -7.55,-6.238 -12.11,-8.168 -4.56,-1.93 -9.57,-2.992 -14.83,-2.992 -5.27,0 -10.28,1.062 -14.84,2.992 -4,1.691 -7.64,4.047 -10.81,6.926 -0.03,0.031 -0.06,0.062 -0.09,0.093 -0.43,0.426 -0.86,0.84 -1.31,1.247 -3.16,2.878 -6.81,5.23 -10.8,6.921 -4.56,1.93 -9.57,2.996 -14.84,2.996 -5.26,0 -10.27,-1.066 -14.83,-2.996 -2.38,-1.007 -4.61,-2.269 -6.71,-3.714 -1.43,-0.985 -2.81,-2.04 -4.09,-3.207 -0.45,-0.407 -0.89,-0.821 -1.31,-1.247 -0.04,-0.031 -0.07,-0.062 -0.1,-0.093 -3.16,-2.879 -6.81,-5.235 -10.8,-6.926 -4.56,-1.93 -9.58,-2.992 -14.84,-2.992 -5.26,0 -10.27,1.062 -14.83,2.992 -4.56,1.93 -8.67,4.719 -12.12,8.168 -3.44,3.441 -6.24,7.547 -8.16,12.105 -1.93,4.571 -2.99,9.578 -2.99,14.844 0,5.262 1.06,10.274 2.99,14.84 1.92,4.559 4.72,8.664 8.16,12.105 3.45,3.45 7.56,6.243 12.12,8.168 0.25,0.11 0.53,0.188 0.79,0.289 4.35,1.727 9.08,2.707 14.04,2.707 5.26,0 10.28,-1.066 14.84,-2.996 3.86,-1.636 7.4,-3.898 10.49,-6.648 0.14,-0.141 0.27,-0.285 0.41,-0.426 0.52,-0.519 1.06,-1.023 1.61,-1.515 3.1,-2.75 6.63,-5.012 10.5,-6.649 4.56,-1.93 9.57,-2.996 14.83,-2.996 5.27,0 10.28,1.066 14.84,2.996 3.54,1.5 6.79,3.547 9.69,5.992 0.27,0.223 0.55,0.426 0.8,0.657 0.56,0.492 1.1,0.996 1.62,1.515 0.14,0.141 0.27,0.285 0.41,0.426 3.09,2.75 6.62,5.012 10.49,6.648 4.56,1.93 9.57,2.996 14.84,2.996 5.26,0 10.27,-1.066 14.83,-2.996 4.56,-1.925 8.66,-4.718 12.11,-8.168 3.45,-3.441 6.25,-7.546 8.17,-12.105 1.93,-4.566 3,-9.578 3,-14.84 0,-3.871 -0.59,-7.605 -1.66,-11.125 -0.39,-1.269 -0.83,-2.512 -1.34,-3.719 z m -58.79,109.993 v 19.07 h -55.75 v -19.07 c -37.35,-1.258 -70.33,-10.93 -89.38,-35.922 -10.88,-14.274 -17.24,-33.516 -17.24,-59.09 0,-70.66 48.28,-93.625 106.95,-95.606 v -19.07 h 9.33 45.76 v 19.07 c 53.42,1.805 98.21,21.028 105.79,77.809 0.75,5.57 1.15,11.484 1.15,17.797 0,70.363 -47.96,93.027 -106.61,95.012" /><path
         id="path18"
         style="fill:#231f20;fill-opacity:1;fill-rule:nonzero;stroke:none"
         d="m 1806.16,434.828 v 37.051 h 70.03 v -91.047 c 19.76,0 39.52,0 59.26,0 v 175.625 51.219 c -5.32,0 -10.65,0 -15.97,0 -14.43,0 -28.85,0 -43.29,0 v -74.742 -7.61 h -9.83 -60.2 v 82.352 c -19.79,0 -39.86,0 -59.32,0 V 542.418 429.355 380.832 c 19.46,0 39.53,0 59.32,0 v 53.996" /><path
         id="path20"
         style="fill:#231f20;fill-opacity:1;fill-rule:nonzero;stroke:none"
         d="m 1585.5,438.832 h 41.84 c 20,0 36.3,5.734 48.93,15.074 31.02,22.946 39.8,67.696 26.34,103.039 -8.48,22.254 -25.77,40.778 -51.89,47.754 -7.14,1.906 -14.93,2.953 -23.38,2.977 -7.48,0 -14.97,0 -22.46,0 -25.97,0 -51.96,0 -77.35,0 0,-8.156 0,-16.293 0,-24.434 0,-10.476 0,-20.961 0,-31.441 2.88,-2.215 6.03,-4.082 9.43,-5.52 5.14,-2.176 10.8,-3.379 16.73,-3.379 5.94,0 11.6,1.203 16.74,3.379 4.37,1.852 8.36,4.399 11.84,7.508 0.63,0.555 1.24,1.117 1.83,1.707 0.15,0.152 0.3,0.317 0.46,0.481 3.48,3.101 7.47,5.656 11.84,7.496 2.72,1.156 5.59,2.027 8.57,2.597 2.65,0.512 5.37,0.785 8.17,0.785 5.93,0 11.59,-1.203 16.73,-3.382 5.12,-2.16 9.73,-5.297 13.62,-9.16 0.01,-0.02 0.03,-0.032 0.05,-0.047 3.89,-3.891 7.04,-8.524 9.21,-13.661 2.18,-5.152 3.38,-10.812 3.38,-16.746 0,-5.937 -1.2,-11.597 -3.38,-16.746 -2.17,-5.144 -5.32,-9.773 -9.21,-13.664 -1.74,-1.738 -3.65,-3.301 -5.67,-4.726 -2.49,-1.754 -5.16,-3.282 -8,-4.485 -5.14,-2.179 -10.8,-3.383 -16.73,-3.383 -5.94,0 -11.6,1.204 -16.74,3.383 -4.52,1.907 -8.63,4.567 -12.2,7.809 -0.03,0.035 -0.07,0.074 -0.1,0.105 -0.49,0.489 -0.97,0.957 -1.48,1.411 -3.57,3.25 -7.68,5.902 -12.19,7.808 -1.9,0.805 -3.88,1.477 -5.91,2.004 -3.46,0.898 -7.09,1.375 -10.83,1.375 -5.93,0 -11.59,-1.199 -16.73,-3.379 -3.39,-1.433 -6.55,-3.285 -9.43,-5.492 0,-38.391 0,-76.734 0,-115.047 2.72,0 5.45,0 8.18,0 16.48,0 33.15,0 49.79,0 v 58" /><path
         id="path22"
         style="fill:#231f20;fill-opacity:1;fill-rule:nonzero;stroke:none"
         d="m 1661.82,266.91 v 19.102 h 8.05 c 2.69,0 4.92,-0.75 6.71,-2.231 1.78,-1.48 2.67,-3.941 2.67,-7.371 0,-1.738 -0.25,-3.219 -0.75,-4.441 -0.5,-1.219 -1.15,-2.207 -1.97,-2.969 -0.82,-0.75 -1.77,-1.289 -2.85,-1.609 -1.08,-0.321 -2.2,-0.481 -3.37,-0.481 z m 20.01,-7.14 c 2.48,1.14 4.51,2.601 6.09,4.378 1.57,1.782 2.72,3.782 3.42,6 0.7,2.223 1.05,4.411 1.05,6.571 0,5.66 -1.73,10.16 -5.17,13.492 -3.45,3.328 -8.62,4.988 -15.51,4.988 h -22.86 v -60.258 h 13.05 l -0.08,23.129 h 10.95 c 3.56,0 6.58,0.559 9.06,1.7" /><path
         id="path24"
         style="fill:#231f20;fill-opacity:1;fill-rule:nonzero;stroke:none"
         d="m 1727,251.32 c -0.23,-1.64 -0.65,-3.082 -1.27,-4.34 -0.61,-1.261 -1.49,-2.25 -2.63,-2.98 -1.13,-0.73 -2.58,-1.09 -4.33,-1.09 -1.93,0 -3.48,0.352 -4.64,1.051 -1.17,0.699 -2.09,1.648 -2.76,2.848 -0.67,1.191 -1.13,2.613 -1.36,4.25 -0.23,1.632 -0.35,3.41 -0.35,5.339 0,1.692 0.13,3.364 0.39,4.993 0.27,1.629 0.75,3.097 1.45,4.379 0.7,1.281 1.63,2.32 2.8,3.109 1.17,0.793 2.66,1.18 4.47,1.18 1.81,0 3.27,-0.387 4.38,-1.18 1.11,-0.789 1.97,-1.828 2.58,-3.109 0.62,-1.282 1.04,-2.75 1.27,-4.379 0.24,-1.629 0.35,-3.301 0.35,-4.993 0,-1.75 -0.11,-3.449 -0.35,-5.078 z m -8.23,27.59 c -3.97,0 -7.35,-0.609 -10.12,-1.84 -2.77,-1.23 -5.03,-2.859 -6.79,-4.91 -1.75,-2.039 -3.03,-4.422 -3.85,-7.129 -0.82,-2.722 -1.23,-5.601 -1.23,-8.633 0,-3.097 0.37,-6 1.1,-8.718 0.73,-2.711 1.94,-5.078 3.63,-7.09 1.7,-2.02 3.91,-3.61 6.66,-4.781 2.75,-1.161 6.1,-1.75 10.07,-1.75 4.09,0 7.54,0.601 10.34,1.8 2.8,1.192 5.08,2.832 6.83,4.903 1.75,2.07 3.01,4.468 3.77,7.179 0.76,2.719 1.14,5.571 1.14,8.547 0,2.973 -0.37,5.821 -1.1,8.543 -0.73,2.707 -1.94,5.11 -3.63,7.18 -1.7,2.07 -3.92,3.711 -6.66,4.898 -2.75,1.2 -6.13,1.801 -10.16,1.801" /><path
         id="path26"
         style="fill:#231f20;fill-opacity:1;fill-rule:nonzero;stroke:none"
         d="m 1781.57,245.969 c -1.92,-0.637 -3.82,-1.16 -5.69,-1.571 -1.87,-0.41 -3.83,-0.617 -5.87,-0.617 -3.91,0 -6.61,1.129 -8.1,3.379 -1.49,2.238 -2.23,5.352 -2.23,9.328 0,4.024 0.9,7.172 2.71,9.41 1.81,2.25 4.47,3.383 7.97,3.383 1.28,0 2.7,-0.082 4.25,-0.222 1.55,-0.149 3.25,-0.489 5.12,-1.008 0.35,1.508 0.69,2.988 1.01,4.418 0.32,1.429 0.63,2.883 0.92,4.34 -2.45,0.871 -4.83,1.441 -7.14,1.711 -2.31,0.261 -4.39,0.39 -6.26,0.39 -4.38,0 -7.94,-0.719 -10.69,-2.148 -2.74,-1.43 -4.9,-3.274 -6.48,-5.524 -1.58,-2.238 -2.66,-4.726 -3.24,-7.437 -0.58,-2.719 -0.88,-5.332 -0.88,-7.84 0,-2.981 0.31,-5.781 0.92,-8.41 0.62,-2.629 1.71,-4.93 3.29,-6.922 1.57,-1.981 3.69,-3.547 6.35,-4.68 2.66,-1.14 6.06,-1.711 10.2,-1.711 2.98,0 5.88,0.293 8.72,0.871 2.83,0.59 5.33,1.43 7.49,2.539 l -2.37,8.321" /><path
         id="path28"
         style="fill:#231f20;fill-opacity:1;fill-rule:nonzero;stroke:none"
         d="m 1817.18,244.398 c -1.87,-0.41 -3.83,-0.617 -5.87,-0.617 -3.91,0 -6.61,1.129 -8.1,3.379 -1.49,2.238 -2.23,5.352 -2.23,9.328 0,4.024 0.9,7.172 2.71,9.41 1.81,2.25 4.47,3.383 7.97,3.383 1.29,0 2.7,-0.082 4.25,-0.222 1.55,-0.149 3.25,-0.489 5.12,-1.008 0.35,1.508 0.69,2.988 1.01,4.418 0.32,1.429 0.63,2.883 0.92,4.34 -2.45,0.871 -4.83,1.441 -7.14,1.711 -2.3,0.261 -4.39,0.39 -6.26,0.39 -4.38,0 -7.94,-0.719 -10.69,-2.148 -2.74,-1.43 -4.9,-3.274 -6.48,-5.524 -1.58,-2.238 -2.66,-4.726 -3.24,-7.437 -0.58,-2.719 -0.88,-5.332 -0.88,-7.84 0,-2.981 0.31,-5.781 0.92,-8.41 0.62,-2.629 1.71,-4.93 3.29,-6.922 1.57,-1.981 3.69,-3.547 6.35,-4.68 2.65,-1.14 6.06,-1.711 10.2,-1.711 2.98,0 5.89,0.293 8.72,0.871 2.83,0.59 5.33,1.43 7.49,2.539 l -2.37,8.321 c -1.93,-0.637 -3.82,-1.16 -5.69,-1.571" /><path
         id="path30"
         style="fill:#231f20;fill-opacity:1;fill-rule:nonzero;stroke:none"
         d="m 1849.48,259.379 -4.82,-7.539 h -0.44 v 26.109 h -12.53 v -43.008 h 11.91 l 11.04,16.379 6.22,9.629 h 0.44 v -26.008 h 12.53 v 43.008 h -12 l -12.35,-18.57" /><path
         id="path32"
         style="fill:#231f20;fill-opacity:1;fill-rule:nonzero;stroke:none"
         d="m 1909.45,291.66 c -1.05,-0.441 -1.97,-0.691 -2.76,-0.75 -0.79,-0.058 -1.44,-0.09 -1.97,-0.09 -1.58,0 -3.39,0.621 -5.43,1.84 -2.05,1.231 -4,3.102 -5.87,5.61 l -5.26,-3.938 c 1,-1.523 2.08,-2.973 3.24,-4.344 1.17,-1.367 2.43,-2.597 3.77,-3.679 1.34,-1.079 2.79,-1.938 4.34,-2.579 1.54,-0.648 3.2,-0.968 4.95,-0.968 1.28,0 2.65,0.187 4.11,0.57 1.46,0.379 2.94,1.02 4.43,1.93 1.49,0.898 2.98,2.09 4.46,3.547 1.49,1.461 2.94,3.273 4.34,5.429 l -3.77,3.422 c -1.86,-1.762 -3.5,-3.09 -4.9,-3.988 -1.4,-0.91 -2.63,-1.582 -3.68,-2.012" /><path
         id="path34"
         style="fill:#231f20;fill-opacity:1;fill-rule:nonzero;stroke:none"
         d="m 1912.6,260.949 h 0.44 v -26.008 h 12.53 v 43.008 h -12 l -12.35,-18.57 -4.82,-7.539 h -0.44 v 26.109 h -12.53 v -43.008 h 11.92 l 11.03,16.379 6.22,9.629" /><path
         id="path36"
         style="fill:#231f20;fill-opacity:1;fill-rule:nonzero;stroke:none"
         d="m 1962.63,244.398 c -1.87,-0.41 -3.83,-0.617 -5.87,-0.617 -3.92,0 -6.61,1.129 -8.1,3.379 -1.49,2.238 -2.24,5.352 -2.24,9.328 0,4.024 0.91,7.172 2.72,9.41 1.81,2.25 4.47,3.383 7.97,3.383 1.28,0 2.7,-0.082 4.25,-0.222 1.54,-0.149 3.25,-0.489 5.12,-1.008 0.35,1.508 0.69,2.988 1.01,4.418 0.32,1.429 0.63,2.883 0.92,4.34 -2.46,0.871 -4.83,1.441 -7.14,1.711 -2.31,0.261 -4.4,0.39 -6.26,0.39 -4.38,0 -7.95,-0.719 -10.69,-2.148 -2.75,-1.43 -4.91,-3.274 -6.48,-5.524 -1.58,-2.238 -2.66,-4.726 -3.24,-7.437 -0.59,-2.719 -0.88,-5.332 -0.88,-7.84 0,-2.981 0.31,-5.781 0.92,-8.41 0.61,-2.629 1.71,-4.93 3.28,-6.922 1.58,-1.981 3.7,-3.547 6.36,-4.68 2.65,-1.14 6.05,-1.711 10.2,-1.711 2.98,0 5.88,0.293 8.72,0.871 2.83,0.59 5.32,1.43 7.49,2.539 l -2.37,8.321 c -1.93,-0.637 -3.82,-1.16 -5.69,-1.571" /><path
         id="path38"
         style="fill:#231f20;fill-opacity:1;fill-rule:nonzero;stroke:none"
         d="m 1989.4,253.859 h 6.14 c 1.86,0 3.51,-0.371 4.95,-1.097 1.42,-0.731 2.55,-2.321 3.37,-4.774 0.76,-2.218 1.46,-4.406 2.1,-6.566 0.64,-2.16 1.28,-4.32 1.93,-6.481 h 12.26 l -4.64,15.149 c -0.59,1.808 -1.43,3.371 -2.54,4.691 -1.11,1.309 -2.8,2.321 -5.08,3.02 v 0.179 c 1.63,0.641 2.99,1.641 4.07,3.008 1.08,1.383 1.85,2.973 2.32,4.782 0.64,2.039 1.24,4.07 1.8,6.089 0.55,2.012 1.09,4.012 1.62,6 h -11.65 c -0.53,-1.75 -1.07,-3.5 -1.62,-5.257 -0.56,-1.75 -1.1,-3.532 -1.62,-5.34 -0.59,-2.051 -1.54,-3.5 -2.85,-4.383 -1.32,-0.879 -2.88,-1.309 -4.69,-1.309 h -5.87 v 16.379 h -12.26 v -43.008 h 12.26 v 18.918" /><path
         id="path40"
         style="fill:#231f20;fill-opacity:1;fill-rule:nonzero;stroke:none"
         d="m 2026.75,277.949 v -43.008 h 11.92 l 11.03,16.379 6.22,9.629 h 0.44 v -26.008 h 12.53 v 43.008 h -12 l -12.35,-18.57 -4.82,-7.539 h -0.44 v 26.109 h -12.53" /><path
         id="path42"
         style="fill:#231f20;fill-opacity:1;fill-rule:nonzero;stroke:none"
         d="m 2078.5,234.941 h 11.91 l 11.03,16.379 6.22,9.629 h 0.44 v -26.008 h 12.53 v 43.008 h -12 l -12.35,-18.57 -4.82,-7.539 h -0.44 v 26.109 h -12.52 v -43.008" /><path
         id="path44"
         style="fill:#231f20;fill-opacity:1;fill-rule:nonzero;stroke:none"
         d="m 2094.57,283.73 c 1.55,-0.648 3.2,-0.968 4.95,-0.968 1.28,0 2.66,0.187 4.12,0.57 1.45,0.379 2.93,1.02 4.42,1.93 1.49,0.898 2.98,2.09 4.47,3.547 1.49,1.461 2.93,3.273 4.33,5.429 l -3.76,3.422 c -1.87,-1.762 -3.51,-3.09 -4.91,-3.988 -1.4,-0.91 -2.63,-1.582 -3.68,-2.012 -1.05,-0.441 -1.97,-0.691 -2.76,-0.75 -0.79,-0.058 -1.44,-0.09 -1.97,-0.09 -1.58,0 -3.39,0.621 -5.43,1.84 -2.05,1.231 -4,3.102 -5.87,5.61 l -5.25,-3.938 c 0.99,-1.523 2.07,-2.973 3.24,-4.344 1.16,-1.367 2.42,-2.597 3.76,-3.679 1.34,-1.079 2.79,-1.938 4.34,-2.579" /><path
         id="path46"
         style="fill:#231f20;fill-opacity:1;fill-rule:nonzero;stroke:none"
         d="m 1611.93,159.23 h -16.3 v 16.211 h -12.52 V 132.43 h 12.52 V 151 h 16.3 v -18.57 h 12.52 v 43.011 h -12.52 V 159.23" /><path
         id="path48"
         style="fill:#231f20;fill-opacity:1;fill-rule:nonzero;stroke:none"
         d="m 1659.5,143.469 c -1.4,-1.231 -2.89,-2.18 -4.47,-2.848 -1.58,-0.672 -3.04,-1.012 -4.38,-1.012 -2.04,0 -3.53,0.473 -4.47,1.403 -0.93,0.937 -1.4,2.308 -1.4,4.117 0,3.562 2.01,5.519 6.04,5.871 l 8.68,0.699 z m 11.91,-2.719 v 20.59 c 0,2.801 -0.39,5.148 -1.18,7.051 -0.79,1.89 -1.92,3.418 -3.38,4.597 -1.46,1.16 -3.24,2.012 -5.34,2.543 -2.1,0.52 -4.44,0.778 -7.01,0.778 -3.09,0 -6.33,-0.321 -9.72,-0.957 -3.39,-0.641 -6.36,-1.52 -8.93,-2.633 0.35,-1.278 0.7,-2.571 1.05,-3.848 0.35,-1.281 0.67,-2.601 0.96,-3.941 2.04,0.64 4.31,1.172 6.79,1.582 2.48,0.398 4.77,0.597 6.87,0.597 3.22,0 5.35,-0.621 6.4,-1.879 1.05,-1.261 1.58,-3.109 1.58,-5.558 v -1.051 c -1.7,-0.121 -3.65,-0.242 -5.87,-0.351 -2.22,-0.122 -4.18,-0.239 -5.87,-0.348 -2.28,-0.121 -4.38,-0.5 -6.31,-1.141 -1.92,-0.64 -3.6,-1.531 -5.03,-2.672 -1.44,-1.14 -2.56,-2.539 -3.38,-4.211 -0.81,-1.66 -1.22,-3.597 -1.22,-5.816 0,-1.23 0.19,-2.57 0.57,-4.031 0.38,-1.461 1.06,-2.821 2.05,-4.071 1,-1.261 2.36,-2.308 4.08,-3.16 1.72,-0.851 3.92,-1.269 6.61,-1.269 0.58,0 1.42,0.031 2.5,0.09 1.08,0.058 2.28,0.257 3.59,0.621 1.31,0.34 2.73,0.867 4.25,1.57 1.52,0.699 3.03,1.719 4.55,3.059 l 0.18,-0.172 c 0.23,-2.16 0.97,-3.559 2.23,-4.199 1.26,-0.641 2.82,-0.969 4.69,-0.969 1.86,0 3.73,0.211 5.6,0.609 1.87,0.41 3.51,0.942 4.91,1.578 l -0.61,7.012 h -5.61" /><path
         id="path50"
         style="fill:#231f20;fill-opacity:1;fill-rule:nonzero;stroke:none"
         d="m 1708.64,169.441 c -0.67,-2.25 -1.34,-4.562 -2.01,-6.921 -0.67,-2.372 -1.33,-4.661 -1.97,-6.879 -0.64,-2.219 -1.23,-4.2 -1.75,-5.961 l -2.45,-9.371 -0.62,0.089 c -0.23,0.993 -0.51,2.321 -0.83,3.993 -0.32,1.66 -0.72,3.339 -1.18,5.031 -0.47,1.687 -1.03,3.707 -1.67,6.047 -0.64,2.332 -1.28,4.711 -1.92,7.14 -0.65,2.422 -1.29,4.77 -1.93,7.051 -0.64,2.281 -1.2,4.199 -1.66,5.781 h -12.36 l 13.32,-42.05 h 5.6 c 0,-0.051 -0.08,-0.371 -0.26,-0.922 -0.17,-0.547 -0.36,-1.149 -0.57,-1.789 -0.2,-0.649 -0.41,-1.239 -0.61,-1.801 -0.21,-0.547 -0.31,-0.859 -0.31,-0.918 -0.7,-2.039 -1.56,-3.441 -2.58,-4.199 -1.02,-0.762 -2.53,-1.141 -4.51,-1.141 -0.82,0 -1.68,0.059 -2.59,0.168 -0.9,0.121 -2.11,0.301 -3.63,0.531 l -1.75,-8.238 c 2.74,-0.703 4.95,-1.152 6.61,-1.352 1.66,-0.21 3.2,-0.308 4.6,-0.308 3.5,0 6.42,0.859 8.76,2.578 2.33,1.73 4.17,4.488 5.52,8.281 l 17.25,51.16 h -12.7 c -0.53,-1.75 -1.12,-3.75 -1.8,-6" /><path
         id="path52"
         style="fill:#231f20;fill-opacity:1;fill-rule:nonzero;stroke:none"
         d="m 1755.95,157.832 c -1.35,-0.641 -2.85,-1.113 -4.51,-1.402 -1.67,-0.289 -3.17,-0.442 -4.52,-0.442 -2.45,0 -4.07,0.672 -4.86,2.024 -0.79,1.34 -1.18,3.09 -1.18,5.25 v 12.179 h -12.53 V 160.98 c 0,-2.16 0.25,-4.109 0.75,-5.859 0.49,-1.762 1.3,-3.262 2.41,-4.519 1.11,-1.25 2.57,-2.231 4.38,-2.93 1.81,-0.703 4.03,-1.051 6.66,-1.051 2.1,0 4.36,0.219 6.78,0.66 2.43,0.43 4.63,1.117 6.62,2.051 V 132.43 h 12.52 v 43.101 h -12.52 v -17.699" /><path
         id="path54"
         style="fill:#231f20;fill-opacity:1;fill-rule:nonzero;stroke:none"
         d="m 1806.9,159.23 h -16.29 v 16.211 h -12.53 V 132.43 h 12.53 V 151 h 16.29 v -18.57 h 12.53 v 43.011 H 1806.9 V 159.23" /><path
         id="path56"
         style="fill:#231f20;fill-opacity:1;fill-rule:nonzero;stroke:none"
         d="m 1874.45,132.43 h 12.53 v 43.011 h -12.53 V 132.43" /><path
         id="path58"
         style="fill:#231f20;fill-opacity:1;fill-rule:nonzero;stroke:none"
         d="m 1856.33,142.32 c -1.11,-1.218 -2.67,-1.832 -4.71,-1.832 h -10.1 v 13.141 h 9.58 c 2.04,0 3.69,-0.617 4.97,-1.84 1.28,-1.23 1.91,-2.84 1.91,-4.82 0,-1.867 -0.55,-3.418 -1.65,-4.649 z m 9.38,14.852 c -1.4,1.258 -3.06,2.219 -4.98,2.887 -1.92,0.671 -3.96,1.011 -6.11,1.011 h -13.1 v 14.371 h -12.53 V 132.43 h 26.45 c 2.11,0 4.06,0.332 5.87,1 1.81,0.679 3.38,1.64 4.69,2.902 1.31,1.25 2.35,2.77 3.11,4.547 0.76,1.781 1.14,3.75 1.14,5.91 0,2.16 -0.41,4.121 -1.23,5.871 -0.81,1.75 -1.92,3.262 -3.31,4.512" /><path
         id="path60"
         style="fill:#231f20;fill-opacity:1;fill-rule:nonzero;stroke:none"
         d="m 1914.33,156.871 -4.82,-7.539 h -0.44 v 26.109 h -12.53 V 132.43 h 11.91 l 11.04,16.379 6.22,9.632 h 0.44 V 132.43 h 12.53 v 43.011 h -12 l -12.35,-18.57" /><path
         id="path62"
         style="fill:#231f20;fill-opacity:1;fill-rule:nonzero;stroke:none"
         d="m 1919.8,188.398 c -0.79,-0.058 -1.45,-0.089 -1.97,-0.089 -1.58,0 -3.39,0.621 -5.43,1.839 -2.05,1.231 -4,3.102 -5.87,5.614 l -5.26,-3.942 c 1,-1.519 2.08,-2.968 3.24,-4.34 1.17,-1.371 2.43,-2.601 3.77,-3.679 1.34,-1.082 2.79,-1.942 4.34,-2.582 1.54,-0.637 3.19,-0.957 4.95,-0.957 1.28,0 2.65,0.179 4.11,0.57 1.46,0.367 2.94,1.02 4.42,1.918 1.5,0.91 2.98,2.09 4.47,3.551 1.49,1.461 2.94,3.269 4.34,5.429 l -3.77,3.418 c -1.87,-1.757 -3.5,-3.078 -4.9,-3.988 -1.4,-0.91 -2.63,-1.578 -3.68,-2.012 -1.05,-0.437 -1.97,-0.687 -2.76,-0.75" /><path
         id="path64"
         style="fill:#231f20;fill-opacity:1;fill-rule:nonzero;stroke:none"
         d="m 2016.19,144.082 c -1.8,-2.512 -4.84,-3.922 -9.1,-4.211 v 28.211 c 2.39,-0.121 4.35,-0.57 5.86,-1.363 1.52,-0.789 2.72,-1.828 3.6,-3.11 0.87,-1.277 1.49,-2.738 1.83,-4.379 0.36,-1.628 0.53,-3.39 0.53,-5.25 0,-4.089 -0.9,-7.39 -2.72,-9.898 z M 1995,139.871 c -4.32,0.18 -7.38,1.52 -9.16,4.027 -1.78,2.512 -2.67,5.872 -2.67,10.082 0,1.809 0.18,3.532 0.53,5.168 0.35,1.633 0.98,3.071 1.88,4.332 0.91,1.258 2.12,2.282 3.64,3.071 1.51,0.789 3.44,1.289 5.78,1.531 z m 30.13,30.27 c -1.93,1.89 -4.4,3.379 -7.4,4.468 -3.01,1.082 -6.56,1.672 -10.64,1.789 v 18.661 h -12.18 l 0.09,-18.661 c -4.03,-0.117 -7.52,-0.757 -10.47,-1.918 -2.95,-1.179 -5.4,-2.73 -7.36,-4.691 -1.95,-1.957 -3.41,-4.277 -4.38,-6.957 -0.96,-2.691 -1.44,-5.641 -1.44,-8.852 0,-2.75 0.35,-5.421 1.05,-8.019 0.7,-2.602 1.94,-4.922 3.72,-6.961 1.78,-2.051 4.2,-3.719 7.27,-5.039 3.07,-1.313 6.93,-2.063 11.61,-2.231 l -0.09,-17.609 h 12.18 v 17.52 c 4.26,0.238 7.91,0.961 10.95,2.191 3.03,1.227 5.48,2.828 7.35,4.809 1.87,1.988 3.24,4.339 4.12,7.058 0.88,2.723 1.31,5.68 1.31,8.891 0,3.211 -0.46,6.129 -1.4,8.762 -0.93,2.628 -2.36,4.886 -4.29,6.789" /><path
         id="path66"
         style="fill:#231f20;fill-opacity:1;fill-rule:nonzero;stroke:none"
         d="m 2067.66,148.809 c -0.24,-1.637 -0.66,-3.079 -1.27,-4.34 -0.62,-1.25 -1.49,-2.239 -2.63,-2.969 -1.14,-0.738 -2.59,-1.102 -4.34,-1.102 -1.92,0 -3.47,0.352 -4.64,1.051 -1.17,0.699 -2.09,1.653 -2.76,2.852 -0.67,1.187 -1.13,2.609 -1.36,4.25 -0.23,1.629 -0.35,3.41 -0.35,5.34 0,1.691 0.13,3.359 0.4,4.988 0.26,1.633 0.74,3.101 1.44,4.383 0.7,1.289 1.64,2.32 2.81,3.109 1.16,0.789 2.65,1.188 4.46,1.188 1.81,0 3.27,-0.399 4.38,-1.188 1.11,-0.789 1.97,-1.82 2.59,-3.109 0.61,-1.282 1.03,-2.75 1.27,-4.383 0.23,-1.629 0.35,-3.297 0.35,-4.988 0,-1.75 -0.12,-3.45 -0.35,-5.082 z m 8.58,20.89 c -1.69,2.071 -3.91,3.711 -6.66,4.91 -2.74,1.192 -6.13,1.789 -10.16,1.789 -3.97,0 -7.34,-0.609 -10.11,-1.839 -2.78,-1.219 -5.04,-2.86 -6.79,-4.899 -1.76,-2.051 -3.04,-4.43 -3.86,-7.14 -0.81,-2.719 -1.22,-5.598 -1.22,-8.629 0,-3.102 0.36,-6 1.09,-8.719 0.73,-2.711 1.94,-5.082 3.64,-7.09 1.69,-2.012 3.91,-3.613 6.65,-4.773 2.75,-1.168 6.1,-1.758 10.08,-1.758 4.09,0 7.53,0.597 10.33,1.801 2.81,1.187 5.08,2.828 6.84,4.91 1.75,2.058 3,4.457 3.76,7.179 0.76,2.707 1.14,5.559 1.14,8.539 0,2.969 -0.36,5.821 -1.09,8.54 -0.73,2.71 -1.95,5.101 -3.64,7.179" /><path
         id="path68"
         style="fill:#231f20;fill-opacity:1;fill-rule:nonzero;stroke:none"
         d="m 2117.86,159.23 h -16.3 v 16.211 h -12.52 V 132.43 h 12.52 V 151 h 16.3 v -18.57 h 12.52 v 43.011 h -12.52 V 159.23" /><path
         id="path70"
         style="fill:#231f20;fill-opacity:1;fill-rule:nonzero;stroke:none"
         d="m 2169.38,140.84 h -15.68 c 1.69,2.148 2.86,5.039 3.5,8.68 0.65,3.64 1.11,8.402 1.41,14.281 l 0.17,3.14 h 10.6 z m 12.61,34.691 h -33.9 l -0.61,-9.293 c -0.23,-3.328 -0.48,-6.316 -0.74,-8.976 -0.27,-2.66 -0.63,-5.043 -1.1,-7.141 -0.47,-2.101 -1.08,-3.922 -1.84,-5.473 -0.76,-1.546 -1.72,-2.816 -2.89,-3.808 l -4.2,-0.18 v -21.109 h 9.46 v 12.879 h 31.09 v -13.051 h 9.11 v 21.281 l -4.47,0.18 0.09,34.691" /></g></g></svg>